<?xml version="1.0" encoding="utf-8"?>
<!-- Generator: Adobe Illustrator 18.1.1, SVG Export Plug-In . SVG Version: 6.00 Build 0)  -->
<svg version="1.1" id="Layer_1" xmlns="http://www.w3.org/2000/svg" xmlns:xlink="http://www.w3.org/1999/xlink" x="0px" y="0px"
	 viewBox="0 0 16.6 16.8" enable-background="new 0 0 16.6 16.8" xml:space="preserve">
<g>
	<path fill="#FFE68D" d="M10.1,9.1c0.2,0.2,0.4,0.4,0.6,0.6c-0.4,0.4-0.8,0.8-1.2,1.2c-0.2-0.2-0.3-0.4-0.5-0.6
		c-1.4,0.9-2.8,1.2-4.3,0.8c-1.1-0.3-2.1-1-2.7-1.9c-1.4-2-1.1-4.6,0.6-6.3C4.3,1.1,7,0.9,8.9,2.3C10.7,3.6,11.8,6.4,10.1,9.1z
		 M10.3,6.3C10.3,3.9,8.4,2,6.1,2C3.7,2,1.8,3.9,1.8,6.3c0,2.4,1.9,4.3,4.3,4.3C8.4,10.6,10.3,8.7,10.3,6.3z"/>
	<path fill="#FFE68D" d="M10.3,11.5c0.4-0.4,0.8-0.8,1.1-1.1c1.3,1.3,2.6,2.6,3.8,3.8c-0.4,0.4-0.8,0.7-1.1,1.1
		C12.9,14.1,11.6,12.8,10.3,11.5z"/>
	<path fill="#FFE68D" d="M14.3,15.6c0.4-0.4,0.8-0.8,1.2-1.2c0.3,0.2,0.5,0.4,0.4,0.8c-0.1,0.4-0.4,0.7-0.8,0.8
		C14.8,16.1,14.5,15.9,14.3,15.6z"/>
	<path fill="#FFE68D" d="M10,11.3c-0.1-0.1-0.1-0.1-0.2-0.2c0.4-0.4,0.8-0.8,1.2-1.2c0,0,0.1,0.1,0.2,0.2
		C10.8,10.5,10.4,10.9,10,11.3z"/>
	<path fill="#FFE68D" d="M10.3,6.3c0,2.4-1.9,4.3-4.3,4.3c-2.4,0-4.3-1.9-4.3-4.3C1.8,3.9,3.7,2,6.1,2C8.4,2,10.3,3.9,10.3,6.3z
		 M1.9,6.3c0,2.3,1.8,4.1,4.1,4.1c2.3,0,4.1-1.8,4.1-4.1c0-2.3-1.8-4.2-4.1-4.2C3.8,2.2,1.9,4,1.9,6.3z"/>
	<path fill="#FFE68D" d="M1.9,6.3c0-2.3,1.9-4.1,4.1-4.1c2.3,0,4.1,1.9,4.1,4.2c0,2.3-1.9,4.1-4.1,4.1C3.8,10.4,1.9,8.6,1.9,6.3z
		 M10,6.3c0-2.2-1.8-3.9-4-3.9c-2.2,0-4,1.8-3.9,4c0,2.2,1.8,3.9,4,3.9C8.3,10.2,10,8.5,10,6.3z"/>
	<path fill="none" d="M10,6.3c0,2.2-1.8,4-3.9,4c-2.2,0-3.9-1.7-4-3.9c0-2.2,1.8-4,3.9-4C8.2,2.3,10,4.1,10,6.3z M9.7,7
		C9,8.8,7.3,9.7,5.9,9.6c-0.4,0-0.9-0.2-1.3-0.3C4.1,9,3.7,8.8,3.4,8.4C3.1,8.1,2.9,7.7,2.7,7.3C2.5,6.9,2.4,6.4,2.3,6
		C2.2,8,3.6,9.7,5.5,10C7.5,10.2,9.3,8.9,9.7,7z"/>
	<path fill="#FFE68D" d="M9.7,7c-0.4,2-2.1,3.2-4.2,3C3.6,9.7,2.2,8,2.3,6c0.1,0.4,0.2,0.8,0.4,1.2c0.2,0.4,0.5,0.8,0.8,1.2
		C3.7,8.8,4.1,9,4.5,9.2c0.4,0.2,0.9,0.3,1.3,0.3C7.3,9.7,9,8.8,9.7,7z"/>
</g>
</svg>
